<?xml version="1.0" encoding="utf-8"?>
<!-- Generator: Adobe Illustrator 21.0.2, SVG Export Plug-In . SVG Version: 6.00 Build 0)  -->
<svg version="1.1" id="Layer_1" xmlns="http://www.w3.org/2000/svg" xmlns:xlink="http://www.w3.org/1999/xlink" x="0px" y="0px"
	 viewBox="0 0 100 100" style="enable-background:new 0 0 100 100;" xml:space="preserve">
<style type="text/css">
	.st0{fill:#EB6852;}
</style>
<g>
	<path class="st0" d="M51.3,31.9c0.6,0,1.2,0,1.8-0.1l3.2-0.2c3.8,4.9,5.9,11,5.9,17.2v2.9v0.1h3.3v-0.1v-2.9v-5c0-3,1-5.9,2.7-8.4
		l3.7,0.2c0.7,0,1.3,0.1,2,0.1l0,0c7.5,0,14.4-2.9,19.2-8.1c4.9-5.3,7.3-12.4,6.8-20.1l-0.5-7.3l-2.3,1.4c-2.7,1.6-6.4,2-10.3,2.4
		c-9.8,1-21.9,2.3-21.4,25.1l0.3,4c-1,1.3-1.8,2.8-2.4,4.3c-1.1-2.9-2.7-5.7-4.7-8.2l0.2-3.5C59.4,5.5,48.5,4.4,39.8,3.5
		c-3.4-0.4-6.7-0.7-9-2.1L28.5,0L28,6.7c-0.5,6.8,1.7,13.2,6.1,17.9C38.4,29.3,44.5,31.9,51.3,31.9z M87.2,7.4
		c3.2-0.3,6.5-0.7,9.3-1.7l0.1,2.2c0.5,6.8-1.7,13-6,17.6c-4.2,4.5-10.2,7-16.8,7l0,0c-0.6,0-1.2,0-1.8-0.1l-1-0.1l15.8-15.8
		l-2.3-2.3L68.8,30l-0.1-0.9C68.3,9.3,77.5,8.4,87.2,7.4z M31.3,6.9l0.1-1.7c2.5,0.9,5.3,1.2,8.1,1.5C48,7.6,56,8.5,55.7,25.7l0,0.5
		L41.9,12.5l-2.3,2.3l13.7,13.7l-0.5,0c-6.5,0.4-12.3-1.8-16.4-6.1C32.7,18.4,30.9,12.9,31.3,6.9z"/>
	<path class="st0" d="M20.6,66.8c3.4-3.3,7.9-5.1,12.6-5.1H59c1.8,0,3.3,1.5,3.3,3.3c0,1.8-1.5,3.3-3.3,3.3h-9
		c-3.1,0-5.7,2.6-5.7,5.7s2.6,5.7,5.7,5.7h22.8l19.8-18.1c0.9-0.9,2.4-0.8,3.2,0.1c0.5,0.5,0.7,1.1,0.7,1.7c0,0.7-0.3,1.2-0.8,1.7
		L78.3,81.4c-3.3,3.1-7.7,4.9-12.3,4.9H38c-5.5,0-10.7,2.1-14.7,5.9L17,98.2l2.3,2.4l6.4-6.1c3.4-3.2,7.8-5,12.4-5h28
		c5.4,0,10.6-2,14.5-5.7L98,67.5c1.1-1,1.8-2.5,1.8-4c0-1.5-0.6-3-1.7-4.1c-2.1-2.1-5.5-2.2-7.8-0.2L71.5,76.5H50
		c-1.3,0-2.4-1.1-2.4-2.4s1.1-2.4,2.4-2.4h9c3.6,0,6.6-2.9,6.6-6.6c0-3.6-2.9-6.6-6.6-6.6H33.2c-5.6,0-10.9,2.2-14.9,6.1L0.6,81.8
		l2.3,2.3L20.6,66.8z"/>
</g>
</svg>
